<?xml version="1.0" encoding="UTF-8" standalone="no"?>
<!-- Created with Inkscape (http://www.inkscape.org/) -->

<svg
   width="169.33333mm"
   height="137.57919mm"
   viewBox="0 0 169.33333 137.57919"
   version="1.1"
   id="svg1"
   xml:space="preserve"
   inkscape:export-filename="logo-black.svg"
   inkscape:export-xdpi="96"
   inkscape:export-ydpi="96"
   sodipodi:docname="logo.svg"
   xmlns:inkscape="http://www.inkscape.org/namespaces/inkscape"
   xmlns:sodipodi="http://sodipodi.sourceforge.net/DTD/sodipodi-0.dtd"
   xmlns="http://www.w3.org/2000/svg"
   xmlns:svg="http://www.w3.org/2000/svg"><sodipodi:namedview
     id="namedview1"
     pagecolor="#ffffff"
     bordercolor="#000000"
     borderopacity="0.25"
     inkscape:showpageshadow="2"
     inkscape:pageopacity="0.0"
     inkscape:pagecheckerboard="0"
     inkscape:deskcolor="#d1d1d1"
     inkscape:document-units="mm"
     inkscape:zoom="0.7180275"
     inkscape:cx="396.92073"
     inkscape:cy="561.25984"
     inkscape:window-width="1450"
     inkscape:window-height="1020"
     inkscape:window-x="332"
     inkscape:window-y="0"
     inkscape:window-maximized="0"
     inkscape:current-layer="layer1" /><defs
     id="defs1" /><g
     inkscape:label="Layer 1"
     inkscape:groupmode="layer"
     id="layer1"
     transform="translate(-21.641548,-72.419185)"><path
       style="fill:#000000;fill-opacity:1;stroke-width:1.60315"
       d="m 163.19656,209.63933 c -2.05268,-0.81893 -9.24123,-2.74186 -14.31987,-3.83057 -10.7375,-2.30178 -22.75101,-3.65092 -32.51416,-3.65138 -9.69925,-4.5e-4 -14.63929,1.12565 -19.511638,4.44778 -1.348623,0.91952 -2.964498,0.89362 -4.052231,-0.0649 -0.644445,-0.568 -1.074,-1.5891 -1.677129,-3.98719 -0.445956,-1.77303 -1.031102,-3.75811 -1.300409,-4.41132 l -0.489689,-1.18767 -1.073822,1.86634 c -0.590578,1.02647 -1.469493,2.8962 -1.953084,4.15497 -0.973707,2.53451 -2.080036,3.64968 -3.620756,3.64968 -0.556177,0 -3.551413,-0.75608 -6.65607,-1.68009 -12.412693,-3.69448 -17.330933,-4.55958 -26.004835,-4.57412 -7.137742,-0.0115 -10.132995,0.416 -15.364853,2.19553 -3.578666,1.21719 -4.839226,1.26937 -5.827297,0.24116 -0.822755,-0.85618 -7.148737,-14.96138 -7.188275,-16.02792 -0.01422,-0.37636 0.142844,-4.73081 0.348444,-9.67659 0.952516,-22.91192 2.133725,-37.9687 4.972071,-63.37872 2.570365,-23.010991 3.728933,-28.185489 7.161422,-31.984849 2.965688,-3.282648 10.963679,-6.578479 20.649119,-8.509084 3.599973,-0.7176 4.996409,-0.811644 12.046337,-0.8112 6.965031,4e-4 8.46824,0.09938 11.876666,0.781511 10.256595,2.0528 21.578459,6.417111 26.696309,10.2908 l 2.23309,1.69024 1.99442,-1.399013 c 4.50055,-3.156951 11.29689,-5.489227 19.15073,-6.57192 15.42286,-2.126098 30.11917,0.114489 43.1813,6.583528 5.83609,2.89032 10.79153,6.111609 11.33836,7.370516 0.22342,0.5144 1.45966,2.521413 2.7472,4.460044 1.28754,1.938622 2.88435,4.668947 3.54846,6.067387 2.32396,4.89359 1.88094,8.76664 -2.47482,21.63618 -4.44252,13.12589 -6.84263,23.63166 -12.90538,56.48934 -1.6013,8.67843 -3.51506,18.67231 -4.25282,22.20862 -1.5576,7.46627 -1.85259,8.00528 -4.36183,7.97052 -0.85398,-0.0115 -1.93173,-0.17271 -2.395,-0.35751 z m -2.8126,-8.01944 c -0.0726,-0.14 -1.85821,-3.19069 -3.968,-6.77937 l -3.83603,-6.52485 -1.78133,-0.66649 c -5.86167,-2.19313 -10.36437,-2.75735 -23.74706,-2.97574 -14.56698,-0.23769 -16.55621,0.0605 -29.072915,4.35676 l -4.301609,1.47653 0.967227,2.26342 c 0.532,1.24489 1.235804,3.11547 1.564071,4.15684 0.328267,1.04137 0.703467,1.89339 0.833778,1.89339 0.130311,0 1.209528,-0.36231 2.398195,-0.80506 4.626013,-1.72328 7.796023,-2.07955 18.109893,-2.03534 9.81788,0.0418 16.40494,0.53262 24.60168,1.83223 4.76123,0.75485 12.27843,2.37184 15.60932,3.35758 2.5431,0.75262 2.8027,0.79715 2.62276,0.45013 z m -78.040952,-4.94503 c 0.792444,-1.55162 1.970764,-3.56658 2.618533,-4.47766 0.647733,-0.91108 1.144649,-1.68457 1.104205,-1.71884 -0.04,-0.0347 -1.982285,-0.90308 -4.3152,-1.93069 -11.888249,-5.2365 -23.303706,-8.36727 -33.015839,-9.05479 -8.734115,-0.61831 -15.320817,1.19973 -19.343421,5.33909 l -1.289582,1.32703 2.260942,5.14304 c 1.24352,2.82865 2.300915,5.14302 2.34976,5.14302 0.04889,0 0.726667,-0.22507 1.506373,-0.50018 2.742355,-0.96756 8.72807,-1.90399 13.428763,-2.10084 7.717245,-0.3232 18.230889,1.30366 28.683217,4.43832 2.14104,0.64213 4.045485,1.17783 4.232125,1.19052 0.186666,0.0124 0.987688,-1.24644 1.780124,-2.79805 z m 84.058632,-8.09954 c 1.87731,-8.62825 3.59,-18.1103 4.76899,-26.40293 1.11213,-7.82233 2.43262,-14.54068 4.38537,-22.31171 1.55402,-6.18424 5.43807,-20.01233 7.31507,-26.04328 1.25968,-4.04738 1.4191,-7.30168 0.47379,-9.67102 -0.62782,-1.57356 -2.81241,-5.429335 -3.07613,-5.429335 -0.0818,0 -1.12533,2.023275 -2.31923,4.496185 -3.69703,7.65753 -6.46112,16.91497 -9.49858,31.8125 -0.66592,3.26607 -2.35198,10.92415 -3.7468,17.01794 -3.76688,16.45701 -5.0594,23.07362 -5.93625,30.38869 -0.3711,3.09593 -0.36619,3.13804 0.55301,4.75065 2.78686,4.88902 5.36404,9.01815 5.45237,8.73573 0.0555,-0.17716 0.78816,-3.48166 1.62839,-7.34342 z M 87.29867,177.6969 c 4.070453,-25.28151 8.567022,-49.21975 14.02191,-74.64813 2.5742,-11.999814 2.59451,-12.133405 1.95212,-12.843236 -1.7414,-1.924204 -12.104181,-6.833262 -18.848901,-8.929075 -7.151858,-2.22232 -14.09815,-3.036844 -21.681306,-2.542337 -5.093555,0.332177 -7.275662,0.684711 -11.640417,1.880577 -8.556684,2.344391 -12.0088,4.728596 -13.807555,9.536222 -1.563902,4.179884 -5.650248,36.537139 -7.274186,57.599809 -0.627556,8.13947 -1.54376,24.27956 -1.544551,27.2094 l -5.69e-4,2.09877 2.46016,-1.12778 c 7.858959,-3.60267 18.986932,-3.83093 31.924505,-0.65493 6.054729,1.48637 13.53863,3.99858 18.890666,6.34129 2.332915,1.02115 4.323582,1.87381 4.423688,1.89477 0.1,0.0213 0.606134,-2.59596 1.124436,-5.81538 z M 72.079542,164.18404 c -8.42088,-1.92654 -21.215324,-2.42529 -30.787999,-1.20016 -6.462809,0.82711 -6.211751,0.99961 -5.865938,-4.03055 0.141334,-2.05551 0.353156,-6.61312 0.470756,-10.12802 0.192533,-5.7553 0.278222,-6.43775 0.861511,-6.86346 0.534844,-0.39031 3.047733,-0.45244 14.421661,-0.35626 15.414409,0.13031 18.860667,0.45866 27.222391,2.59356 2.938248,0.75022 4.029822,1.19723 4.446239,1.82087 0.349689,0.52373 0.320889,2.16186 -0.04178,2.38614 -0.165956,0.10258 -0.401689,0.60782 -0.523823,1.12287 -0.4656,1.96339 -4.688977,14.52967 -5.01911,14.93387 -0.4544,0.55627 -1.864898,0.48044 -5.183689,-0.27884 z m 2.041884,-4.19791 c 0.838311,-0.35023 1.361093,-0.90553 1.837049,-1.95117 0.519822,-1.14186 2.625173,-7.44922 3.3476,-10.02875 0.2672,-0.9542 -2.911511,-1.52666 -13.595751,-2.44852 -10.327599,-0.89107 -17.346186,-1.16339 -22.429164,-0.87022 l -4.286613,0.24729 v 3.80922 c 0,2.09508 -0.165333,5.45192 -0.367377,7.45965 -0.202045,2.00774 -0.307556,3.71029 -0.2344,3.78346 0.07289,0.0729 1.880008,-0.10996 4.015226,-0.40685 5.812364,-0.80826 17.549742,-0.73369 23.054559,0.1464 5.217325,0.83414 7.145218,0.89195 8.65888,0.25947 z M 78.90611,139.7291 c -7.646399,-1.40073 -12.241448,-1.71772 -27.464443,-1.89465 l -14.8692,-0.1728 -0.371999,-0.89378 c -0.442045,-1.06204 -0.393867,-4.18264 0.107644,-6.9712 0.536444,-2.98297 2.667813,-10.1437 3.173538,-10.66226 0.720444,-0.73867 7.564373,-1.16166 15.461581,-0.95554 8.159076,0.21298 14.437698,0.78365 24.941004,2.26706 3.919297,0.55351 7.237004,1.00643 7.372684,1.00646 0.135644,1e-5 0.471555,0.34365 0.746311,0.76356 0.459022,0.70142 0.300978,1.45032 -1.94336,9.212 -1.993884,6.89545 -2.567733,8.49144 -3.121635,8.682 -0.373245,0.12844 -2.187707,-0.0427 -4.032098,-0.3808 z m 2.058027,-4.22715 c 0.715111,-0.52996 1.226551,-1.51307 2.02928,-3.90087 1.51584,-4.50903 1.702613,-5.99668 0.858755,-6.84052 -0.905146,-0.90516 -5.036711,-1.84272 -10.032381,-2.27664 -2.263583,-0.19662 -6.024347,-0.53769 -8.357262,-0.75796 -4.743964,-0.448 -17.958995,-0.53608 -21.430169,-0.14284 l -2.257839,0.25573 -0.912516,2.92675 c -1.130898,3.62718 -1.853849,6.98075 -1.861582,8.63542 l -0.006,1.25953 13.82783,0.006 c 13.381361,0.005 13.959307,0.0329 17.899831,0.84613 5.094462,1.05151 8.814107,1.04776 10.241938,-0.01 z m 3.133466,-18.25398 c -0.298577,-0.27964 -8.484586,-0.88337 -12.634115,-0.93173 -5.550826,-0.0649 -5.552924,-0.0658 -6.082479,-4.27804 -0.302667,-2.40716 -0.299556,-3.98536 0.01244,-6.78668 0.464356,-4.15635 2.489965,-12.248199 3.174738,-12.682172 1.089644,-0.690578 8.023146,-0.09333 12.666719,1.091093 3.275716,0.835555 8.051493,2.840871 8.839618,3.711733 0.507377,0.560711 0.527644,0.897751 0.176,2.940236 -0.2184,1.26884 -1.004436,4.36842 -1.746676,6.88798 -0.742222,2.51955 -1.438515,5.4972 -1.547262,6.61701 -0.235022,2.42032 -0.855467,3.563 -1.934587,3.563 -0.4312,0 -0.847555,-0.0596 -0.92536,-0.13244 z m 0.01422,-5.97557 c 0.229511,-1.21312 0.933351,-3.52842 1.56408,-5.14511 1.513946,-3.88057 1.728551,-5.31236 1.005688,-6.710218 -1.101057,-2.1292 -6.131653,-3.68088 -12.440132,-3.837085 l -3.497129,-0.08622 -0.605156,2.205662 c -1.199191,4.370711 -1.651235,7.294061 -1.651235,10.678551 0,1.89434 0.09102,3.68144 0.202222,3.97133 0.163822,0.42684 1.150116,0.57431 5.188978,0.77573 2.742702,0.13671 5.97927,0.35627 7.192382,0.48782 1.213119,0.13147 2.299564,0.1552 2.414328,0.0524 0.114756,-0.10275 0.396445,-1.17936 0.625956,-2.39248 z m -44.298168,1.1563 c -0.832533,-1.82002 -0.893102,-2.23532 -0.712444,-4.8813 0.403644,-5.9108 1.957387,-12.662826 3.309547,-14.381804 1.028106,-1.307031 2.235475,-1.829262 5.630106,-2.435235 5.552071,-0.991102 15.253546,-0.425333 16.12024,0.940071 0.481333,0.758311 0.304533,2.217715 -0.592089,4.888915 -1.371387,4.085283 -1.83944,7.232293 -1.83944,12.367553 0,3.5311 -0.106934,4.72997 -0.424178,4.7571 -0.233333,0.0196 -4.08896,0.0676 -8.56816,0.10693 -4.4792,0.0391 -9.014666,0.19583 -10.078826,0.34889 l -1.934818,0.27822 z m 13.432551,-1.88738 5.259662,0.0356 0.04356,-3.63929 c 0.04622,-3.83394 0.788533,-8.274185 1.854186,-11.092621 0.350312,-0.92656 0.524712,-1.79328 0.387378,-1.926071 -0.137244,-0.132711 -1.810169,-0.420978 -3.717564,-0.640533 -4.174071,-0.480267 -8.133076,-0.06044 -10.758747,1.142018 -1.712266,0.783911 -1.738933,0.819822 -2.330462,3.138755 -0.895697,3.511362 -1.936462,9.297582 -1.936462,10.765922 0,0.71254 0.166933,1.60744 0.371022,1.98874 0.343467,0.64187 0.563734,0.67467 2.969165,0.44284 1.428986,-0.13768 4.965004,-0.23457 7.857804,-0.21511 z m 49.033654,69.97018 c 1.49307,-0.38809 4.90436,-1.02333 7.58062,-1.41156 4.44555,-0.64489 5.98471,-0.69245 17.815,-0.55022 13.7646,0.16551 15.62719,0.34595 21.68822,2.10149 1.53736,0.44524 2.8524,0.75236 2.92234,0.6824 0.0699,-0.0702 0.48417,-2.41455 0.92054,-5.21026 1.0027,-6.4241 1.85035,-10.56486 5.56503,-27.18501 1.64768,-7.37202 3.70914,-16.75543 4.58103,-20.85202 3.12713,-14.69277 6.56764,-24.60951 11.3549,-32.72875 0.5767,-0.97808 0.96417,-1.914845 0.86105,-2.081698 -0.43019,-0.696089 -7.08249,-4.152098 -11.02104,-5.725733 -12.08931,-4.830222 -25.60732,-6.000978 -39.22367,-3.397022 -8.24026,1.575849 -13.79305,4.713173 -15.01665,8.484426 -0.94244,2.904729 -6.28229,28.426977 -9.72054,46.460127 -2.67363,14.02285 -7.638474,42.65102 -7.638474,44.04478 0,0.15004 1.488818,-0.22169 3.308498,-0.82623 1.819662,-0.60453 4.530086,-1.41664 6.023146,-1.80477 z m 35.96935,-10.09848 c -1.86142,-0.45137 -6.91922,-0.57377 -13.73625,-0.33217 -1.56706,0.0551 -1.87887,-0.0329 -1.98226,-0.56018 -0.0676,-0.34436 0.50391,-2.86387 1.26967,-5.59901 0.76577,-2.73512 2.13395,-8.17964 3.0404,-12.09896 l 1.64807,-7.126 1.48686,-0.94455 c 0.81775,-0.51947 2.23987,-1.16848 3.16027,-1.44216 3.40682,-1.01308 10.04632,-0.36596 12.63024,1.23098 1.87841,1.16092 2.1028,3.92918 0.65186,8.0416 -0.24477,0.69378 -1.32142,5.00176 -2.3926,9.57341 -1.07118,4.57163 -2.16356,8.65562 -2.42758,9.07555 -0.54049,0.85973 -0.54973,0.86027 -3.34868,0.18151 z m 3.36139,-11.37951 c 2.16662,-10.70975 2.19565,-11.04696 1.06662,-12.38876 -1.63498,-1.94306 -6.11837,-2.26349 -9.75866,-0.69751 -0.89413,0.38462 -1.62569,0.76338 -1.62569,0.8416 0,0.38506 -2.81664,12.77532 -3.68799,16.22323 l -0.99502,3.93735 3.27466,-0.1944 c 1.80108,-0.10693 4.34359,-0.0569 5.65002,0.11191 1.30642,0.16845 2.83343,0.32623 3.39332,0.35076 l 1.01801,0.0444 z m -26.07107,10.71844 c -1.30936,-0.70889 -6.71444,-1.45672 -10.58827,-1.46497 -2.36389,-0.005 -3.1996,-0.12987 -3.52935,-0.5272 -0.35484,-0.42747 -0.18222,-1.83828 0.96493,-7.8895 0.76835,-4.05289 2.31376,-12.63706 3.43423,-19.0759 1.12046,-6.43886 2.53813,-14.15003 3.15034,-17.13596 l 1.11312,-5.42898 2.03601,-0.80773 c 3.09647,-1.22841 6.17089,-1.60187 9.36038,-1.13701 3.40495,0.49627 6.46272,1.91711 6.90558,3.20879 0.24716,0.72089 -0.22675,3.42058 -2.14444,12.21599 -1.35394,6.2098 -3.66977,17.2939 -5.14631,24.6313 -1.47653,7.33744 -2.77287,13.4836 -2.88076,13.65818 -0.29387,0.47547 -1.5563,0.35893 -2.67546,-0.24702 z m 1.79656,-10.88806 c 1.62633,-8.33223 5.36628,-26.20848 6.85843,-32.78205 0.54471,-2.39957 0.99034,-4.64764 0.99034,-4.99568 0,-1.55244 -6.95021,-2.34626 -10.4282,-1.19105 -1.5833,0.52587 -1.8108,0.72445 -2.10466,1.83695 -0.42382,1.60449 -2.75251,14.07391 -4.09863,21.94666 -0.5744,3.35941 -1.66384,9.43912 -2.421,13.51048 -0.75716,4.07137 -1.30278,7.47636 -1.21251,7.56663 0.0902,0.0902 1.5183,0.3104 3.17341,0.48916 1.65509,0.17875 3.77277,0.45884 4.70593,0.62231 3.36379,0.58933 2.92168,1.27183 4.53689,-7.0034 z m 26.54018,-21.6367 c -3.04455,-1.09986 -6.04413,-1.32371 -9.50017,-0.70897 -3.16435,0.56284 -4.10126,0.34995 -4.10126,-0.93212 0,-0.77591 2.2462,-13.45063 2.57873,-14.55118 0.18798,-0.62205 2.3509,-1.70579 4.62869,-2.31914 5.45335,-1.46844 12.92408,-0.6552 14.94859,1.62724 1.20114,1.35417 1.08829,2.7052 -0.79984,9.57576 -0.98584,3.58722 -2.08244,6.89091 -2.43692,7.34154 -0.82536,1.0493 -2.34778,1.03982 -5.31782,-0.0329 z m 4.44104,-6.95214 c 1.60094,-4.89112 1.68468,-6.79305 0.35756,-8.12016 -1.20133,-1.20135 -3.1204,-1.50109 -6.69303,-1.04538 -2.81855,0.35956 -5.79446,1.19289 -6.11565,1.71261 -0.10196,0.16489 -0.5642,2.32921 -1.02729,4.80955 -0.46306,2.48035 -0.89149,4.73876 -0.95205,5.01872 -0.0931,0.43076 0.57279,0.51449 4.33176,0.54462 3.20536,0.0258 4.81975,0.1864 5.79922,0.57734 2.65093,1.05806 2.8656,0.88346 4.29948,-3.4973 z m 2.48721,-16.16317 c -5.7573,-1.47508 -11.59185,-2.34321 -20.36001,-3.0294 -7.96828,-0.62356 -12.41254,-0.48667 -15.80779,0.48711 -2.75247,0.78942 -3.36455,0.54978 -3.36455,-1.31726 0,-1.4247 1.68583,-9.90468 2.53852,-12.769098 0.51582,-1.732889 0.53226,-1.747787 2.89222,-2.622542 2.73837,-1.015014 6.53365,-1.998729 10.1786,-2.63824 3.24098,-0.568622 12.94363,-0.567111 16.288,0.0032 5.68461,0.968337 11.85257,2.877315 16.86793,5.220595 3.22876,1.508551 3.36903,1.885413 1.83448,4.928875 -1.0783,2.1386 -2.76455,7.00986 -3.43247,9.91584 -0.62485,2.71868 -0.86878,3.06212 -2.13272,3.00286 -0.59997,-0.0284 -3.07599,-0.55973 -5.50221,-1.18138 z m 5.72508,-6.6256 c 0.67719,-2.17568 1.23124,-4.56898 1.23124,-5.31847 0,-2.786321 -1.93487,-3.964818 -9.57103,-5.829503 -9.92816,-2.424364 -18.788,-2.205102 -28.1798,0.697334 -1.81968,0.5624 -3.3085,1.058444 -3.3085,1.102426 0,0.04356 -0.45555,2.139143 -1.01242,4.655953 -0.5568,2.5168 -1.01492,4.66828 -1.018,4.78108 -0.003,0.11289 2.20559,0.13005 4.90811,0.0382 9.82042,-0.33342 24.45293,1.31529 33.60064,3.78586 0.93317,0.252 1.79157,0.36471 1.9076,0.25049 0.11606,-0.11431 0.76498,-1.98782 1.44216,-4.1635 z"
       id="path1" /></g></svg>
